<?xml version="1.0" encoding="utf-8"?>
<!-- Generator: Adobe Illustrator 18.0.0, SVG Export Plug-In . SVG Version: 6.00 Build 0)  -->
<!DOCTYPE svg PUBLIC "-//W3C//DTD SVG 1.1//EN" "http://www.w3.org/Graphics/SVG/1.1/DTD/svg11.dtd">
<svg version="1.1" id="Layer_1" xmlns="http://www.w3.org/2000/svg" xmlns:xlink="http://www.w3.org/1999/xlink" x="0px" y="0px"
	 viewBox="0 0 40 40" enable-background="new 0 0 40 40" xml:space="preserve">
<path fill="#FFFFFF" d="M-4-4.4v48.9H44V-4.4H-4z M41.8,13.2c0.2,0.2,0.2,0.5,0,0.7c-0.1,0.1-0.2,0.1-0.4,0.1s-0.3,0-0.4-0.1l-3-3
	c-0.2-0.2-0.2-0.5,0-0.7s0.5-0.2,0.7,0L41.8,13.2z M41.6,22.1l-1.7,3.8c-0.1,0.2-0.3,0.3-0.5,0.3c-0.1,0-0.1,0-0.2,0
	c-0.3-0.1-0.4-0.4-0.3-0.7l1.7-3.8c0.1-0.3,0.4-0.4,0.7-0.3C41.6,21.6,41.7,21.9,41.6,22.1z M16.6,15.1c-0.1,0-0.1,0.1-0.2,0.1
	c-0.2,0-0.4-0.1-0.5-0.3c-0.1-0.2,0-0.5,0.2-0.7l3.9-1.9c0.3-0.1,0.5,0,0.7,0.2c0.1,0.2,0,0.5-0.2,0.7L16.6,15.1z M17.9,18l-1,4.2
	c-0.1,0.2-0.3,0.4-0.5,0.4c0,0-0.1,0-0.1,0c-0.3-0.1-0.4-0.3-0.4-0.6l1-4.2c0.1-0.3,0.3-0.4,0.6-0.4C17.8,17.5,18,17.7,17.9,18z
	 M24.2,12.2c-0.1,0.1-0.2,0.1-0.3,0.1c-0.1,0-0.3-0.1-0.4-0.2l-3.6-3.8c-0.2-0.2-0.2-0.5,0-0.7c0.2-0.2,0.5-0.2,0.7,0l3.6,3.8
	C24.5,11.7,24.4,12,24.2,12.2z M24.1,15.1l-3.1,3c-0.1,0.1-0.2,0.1-0.3,0.1c-0.1,0-0.3-0.1-0.4-0.2c-0.2-0.2-0.2-0.5,0-0.7l3.1-3
	c0.2-0.2,0.5-0.2,0.7,0C24.4,14.6,24.3,14.9,24.1,15.1z M19.7,5.6c-0.3-0.1-0.4-0.3-0.4-0.6s0.3-0.4,0.6-0.4l4.8,1.1
	C25,5.8,25.1,6,25.1,6.3c-0.1,0.2-0.3,0.4-0.5,0.4c0,0-0.1,0-0.1,0L19.7,5.6z M19.8,20.9c0.2-0.2,0.5-0.2,0.7,0l2.8,3.2
	c0.2,0.2,0.2,0.5,0,0.7C23.1,25,23,25,22.9,25c-0.1,0-0.3-0.1-0.4-0.2l-2.8-3.2C19.5,21.4,19.6,21.1,19.8,20.9z M23.1,27.9l3.3-2.7
	c0.2-0.2,0.5-0.1,0.7,0.1c0.2,0.2,0.1,0.5-0.1,0.7l-3.3,2.7c-0.1,0.1-0.2,0.1-0.3,0.1c-0.1,0-0.3-0.1-0.4-0.2
	C22.8,28.4,22.9,28.1,23.1,27.9z M25.7,29.2c0.3-0.1,0.5,0,0.7,0.3l1.7,3.9c0.1,0.3,0,0.5-0.3,0.7c-0.1,0-0.1,0-0.2,0
	c-0.2,0-0.4-0.1-0.5-0.3l-1.7-3.9C25.3,29.6,25.4,29.4,25.7,29.2z M25.1,19.2c-0.2-0.2-0.2-0.5,0-0.7s0.5-0.2,0.7,0l3.2,2.9
	c0.2,0.2,0.2,0.5,0,0.7c-0.1,0.1-0.2,0.2-0.4,0.2c-0.1,0-0.2,0-0.3-0.1L25.1,19.2z M28.6,28.1l2.2-3.7c0.1-0.2,0.4-0.3,0.7-0.2
	c0.2,0.1,0.3,0.4,0.2,0.7l-2.2,3.7c-0.1,0.2-0.3,0.2-0.4,0.2c-0.1,0-0.2,0-0.3-0.1C28.5,28.7,28.4,28.4,28.6,28.1z M30.3,31.8
	l3.9-2.3c0.2-0.1,0.5-0.1,0.7,0.2c0.1,0.2,0.1,0.5-0.2,0.7l-3.9,2.3c-0.1,0-0.2,0.1-0.3,0.1c-0.2,0-0.3-0.1-0.4-0.2
	C30,32.2,30.1,31.9,30.3,31.8z M36.5,20.6c0.3-0.1,0.5,0.1,0.6,0.4c0.1,0.3-0.1,0.5-0.4,0.6l-4.1,0.9c0,0-0.1,0-0.1,0
	c-0.2,0-0.4-0.2-0.5-0.4c-0.1-0.3,0.1-0.5,0.4-0.6L36.5,20.6z M36.7,13.1c0.3-0.1,0.5,0.1,0.6,0.4l0.9,4.2c0.1,0.3-0.1,0.5-0.4,0.6
	c0,0-0.1,0-0.1,0c-0.2,0-0.4-0.2-0.5-0.4l-0.9-4.2C36.3,13.4,36.4,13.2,36.7,13.1z M34.1,25.8c-0.2-0.2-0.2-0.5-0.1-0.7
	c0.2-0.2,0.5-0.2,0.7-0.1l3.3,2.7c0.2,0.2,0.2,0.5,0.1,0.7c-0.1,0.1-0.2,0.2-0.4,0.2c-0.1,0-0.2,0-0.3-0.1L34.1,25.8z M35.1-1.8
	c0.2-0.2,0.5-0.1,0.7,0.1l2.6,3.4c0.2,0.2,0.1,0.5-0.1,0.7c-0.1,0.1-0.2,0.1-0.3,0.1c-0.2,0-0.3-0.1-0.4-0.2L35-1.1
	C34.8-1.3,34.9-1.6,35.1-1.8z M34.9,8.8l2-4.1c0.1-0.2,0.4-0.3,0.7-0.2c0.2,0.1,0.4,0.4,0.2,0.7l-2,4.1c-0.1,0.2-0.3,0.3-0.4,0.3
	c-0.1,0-0.1,0-0.2-0.1C34.8,9.3,34.7,9,34.9,8.8z M34.1,15.3l-1.3,4c-0.1,0.2-0.3,0.3-0.5,0.3c-0.1,0-0.1,0-0.2,0
	c-0.3-0.1-0.4-0.4-0.3-0.6l1.3-4c0.1-0.3,0.4-0.4,0.6-0.3C34,14.7,34.2,15,34.1,15.3z M33,1c0.3,0,0.5,0.2,0.5,0.5l0.1,4.2
	c0,0.3-0.2,0.5-0.5,0.5c0,0,0,0,0,0c-0.3,0-0.5-0.2-0.5-0.5l-0.1-4.2C32.5,1.2,32.7,1,33,1z M30.1,0.9l1.2-4.2
	c0.1-0.3,0.3-0.4,0.6-0.3c0.3,0.1,0.4,0.4,0.3,0.6l-1.2,4.2c-0.1,0.2-0.3,0.4-0.5,0.4c0,0-0.1,0-0.1,0C30.2,1.4,30,1.1,30.1,0.9z
	 M29,8.8c0.2-0.2,0.5-0.3,0.7-0.1l3.6,2.4c0.2,0.2,0.3,0.5,0.1,0.7C33.3,11.9,33.2,12,33,12c-0.1,0-0.2,0-0.3-0.1l-3.6-2.4
	C28.9,9.4,28.8,9.1,29,8.8z M28.8,12.9l0.6,4.2c0,0.3-0.2,0.5-0.4,0.6c0,0,0,0-0.1,0c-0.2,0-0.5-0.2-0.5-0.4l-0.6-4.2
	c0-0.3,0.2-0.5,0.4-0.6C28.5,12.5,28.8,12.7,28.8,12.9z M27.8,5.2c0.3,0.1,0.4,0.4,0.3,0.6L26.8,10c-0.1,0.2-0.3,0.3-0.5,0.3
	c0,0-0.1,0-0.2,0c-0.3-0.1-0.4-0.4-0.3-0.6l1.3-4.1C27.2,5.3,27.5,5.1,27.8,5.2z M22.5-1.9C22.7-2.1,23-2,23.2-1.8l3.2,4.1
	c0.2,0.2,0.1,0.5-0.1,0.7c-0.1,0.1-0.2,0.1-0.3,0.1c-0.1,0-0.3-0.1-0.4-0.2l-3.2-4.1C22.2-1.4,22.3-1.7,22.5-1.9z M16.2,0.3
	c0.2-0.2,0.5-0.3,0.7-0.1l3.6,2.6c0.2,0.2,0.3,0.5,0.1,0.7c-0.1,0.1-0.3,0.2-0.4,0.2c-0.1,0-0.2,0-0.3-0.1L16.3,1
	C16.1,0.8,16,0.5,16.2,0.3z M15.6,6c0.3-0.1,0.5,0.1,0.6,0.3l1.3,4.1c0.1,0.3-0.1,0.5-0.3,0.6c-0.1,0-0.1,0-0.2,0
	c-0.2,0-0.4-0.1-0.5-0.3l-1.3-4.1C15.2,6.4,15.4,6.1,15.6,6z M14.7,18.2c-0.1,0.1-0.2,0.2-0.4,0.2c-0.1,0-0.2,0-0.3-0.1l-3.3-2.7
	c-0.2-0.2-0.2-0.5-0.1-0.7c0.2-0.2,0.5-0.2,0.7-0.1l3.3,2.7C14.8,17.7,14.9,18,14.7,18.2z M1.3,18.1c-0.1,0-0.3-0.1-0.4-0.2
	c-0.2-0.2-0.2-0.5,0.1-0.7l3.3-2.8c0.2-0.2,0.5-0.2,0.7,0.1c0.2,0.2,0.2,0.5-0.1,0.7L1.6,18C1.5,18.1,1.4,18.1,1.3,18.1z M1.6,22.1
	l-1.7,3.8c-0.1,0.2-0.3,0.3-0.5,0.3c-0.1,0-0.1,0-0.2,0c-0.3-0.1-0.4-0.4-0.3-0.7l1.7-3.8c0.1-0.3,0.4-0.4,0.7-0.3
	C1.6,21.6,1.7,21.9,1.6,22.1z M3.1,19c0.3-0.1,0.5,0,0.7,0.3l1.7,3.9c0.1,0.3,0,0.5-0.3,0.7c-0.1,0-0.1,0-0.2,0
	c-0.2,0-0.4-0.1-0.5-0.3l-1.7-3.9C2.7,19.4,2.8,19.2,3.1,19z M3,28l3.4-2.7c0.2-0.2,0.5-0.1,0.7,0.1c0.2,0.2,0.1,0.5-0.1,0.7
	l-3.4,2.7c-0.1,0.1-0.2,0.1-0.3,0.1c-0.1,0-0.3-0.1-0.4-0.2C2.7,28.5,2.8,28.2,3,28z M6.4,18.7c-0.1,0.2-0.3,0.2-0.4,0.2
	c-0.1,0-0.2,0-0.3-0.1c-0.2-0.1-0.3-0.4-0.2-0.7l2.2-3.7c0.1-0.2,0.4-0.3,0.7-0.2c0.2,0.1,0.3,0.4,0.2,0.7L6.4,18.7z M7.5,21.7
	l3.8-1.9c0.2-0.1,0.5,0,0.7,0.2c0.1,0.2,0,0.5-0.2,0.7l-3.8,1.9c-0.1,0-0.1,0.1-0.2,0.1c-0.2,0-0.4-0.1-0.4-0.3
	C7.1,22.1,7.2,21.8,7.5,21.7z M11.6,28.8c0,0.3-0.2,0.5-0.4,0.6c0,0,0,0-0.1,0c-0.3,0-0.5-0.2-0.5-0.4l-0.5-4.3
	c0-0.3,0.2-0.5,0.4-0.6c0.3,0,0.5,0.2,0.6,0.4L11.6,28.8z M9.1,31.3c0.2-0.2,0.5-0.2,0.7,0L13,34c0.2,0.2,0.2,0.5,0,0.7
	c-0.1,0.1-0.2,0.2-0.4,0.2c-0.1,0-0.2,0-0.3-0.1L9.2,32C9,31.8,8.9,31.5,9.1,31.3z M11.8,1.1l1.3-4c0.1-0.3,0.4-0.4,0.6-0.3
	c0.3,0.1,0.4,0.4,0.3,0.6l-1.3,4c-0.1,0.2-0.3,0.3-0.5,0.3c-0.1,0-0.1,0-0.2,0C11.9,1.7,11.7,1.4,11.8,1.1z M11.4,8.5l1.3-4.1
	c0.1-0.3,0.4-0.4,0.6-0.3c0.3,0.1,0.4,0.4,0.3,0.6l-1.3,4.1c-0.1,0.2-0.3,0.3-0.5,0.3c0,0-0.1,0-0.2,0C11.5,9.1,11.3,8.8,11.4,8.5z
	 M9.8,10.9l4.1,1.4c0.3,0.1,0.4,0.4,0.3,0.6c-0.1,0.2-0.3,0.3-0.5,0.3c-0.1,0-0.1,0-0.2,0l-4.1-1.4c-0.3-0.1-0.4-0.4-0.3-0.6
	C9.2,11,9.5,10.8,9.8,10.9z M7.7,1.2C8,1.2,8.2,1.3,8.3,1.6l0.9,4.5c0.1,0.3-0.1,0.5-0.4,0.6c0,0-0.1,0-0.1,0
	c-0.2,0-0.4-0.2-0.5-0.4L7.3,1.8C7.3,1.5,7.4,1.3,7.7,1.2z M7.1,9.1C7.2,9.3,7,9.6,6.7,9.7l-4.1,1.2c0,0-0.1,0-0.1,0
	c-0.2,0-0.4-0.1-0.5-0.4C1.9,10.3,2.1,10,2.4,9.9l4.1-1.2C6.7,8.6,7,8.8,7.1,9.1z M1.1-3c0.3-0.1,0.5,0,0.6,0.3l1.6,4
	c0.1,0.3,0,0.5-0.3,0.6C3,2,3,2,2.9,2C2.7,2,2.5,1.9,2.4,1.7l-1.6-4C0.7-2.6,0.9-2.9,1.1-3z M0.8,4.4C1,4.1,1.2,4,1.5,4.1l4.7,2.1
	c0.3,0.1,0.4,0.4,0.3,0.7C6.4,7.1,6.2,7.2,6,7.2c-0.1,0-0.1,0-0.2,0L1.1,5.1C0.8,4.9,0.7,4.6,0.8,4.4z M-2,10.2
	c0.2-0.2,0.5-0.2,0.7,0l3,3c0.2,0.2,0.2,0.5,0,0.7c-0.1,0.1-0.2,0.1-0.4,0.1S1.1,14.1,1,14l-3-3C-2.1,10.8-2.1,10.4-2,10.2z
	 M-1.1,35c-0.2,0-0.3-0.1-0.4-0.2c-0.2-0.2-0.1-0.5,0.1-0.7L2,31.5c0.2-0.2,0.5-0.1,0.7,0.1c0.2,0.2,0.1,0.5-0.1,0.7l-3.4,2.6
	C-0.9,35-1,35-1.1,35z M3.1,42C3,42,3,42,2.9,42c-0.2,0-0.4-0.1-0.5-0.3l-1.6-4c-0.1-0.3,0-0.5,0.3-0.6c0.3-0.1,0.5,0,0.6,0.3l1.6,4
	C3.5,41.6,3.3,41.9,3.1,42z M4,35c-0.1,0-0.2,0-0.3-0.1c-0.2-0.1-0.3-0.5-0.2-0.7l2.3-3.6c0.1-0.2,0.5-0.3,0.7-0.2
	c0.2,0.1,0.3,0.5,0.2,0.7l-2.3,3.6C4.3,34.9,4.2,35,4,35z M9.9,37.2l-4.2,1.2c0,0-0.1,0-0.1,0c-0.2,0-0.4-0.1-0.5-0.4
	c-0.1-0.3,0.1-0.5,0.3-0.6l4.2-1.2c0.3-0.1,0.5,0.1,0.6,0.3C10.4,36.8,10.2,37.1,9.9,37.2z M14.1,37.5l-1.3,4
	c-0.1,0.2-0.3,0.3-0.5,0.3c-0.1,0-0.1,0-0.2,0c-0.3-0.1-0.4-0.4-0.3-0.6l1.3-4c0.1-0.3,0.4-0.4,0.6-0.3C14,36.9,14.2,37.2,14.1,37.5
	z M18.5,38.4c-0.1,0-0.1,0-0.2,0c-0.2,0-0.4-0.1-0.5-0.3l-2.1-4.4c-0.1-0.2,0-0.5,0.2-0.7c0.2-0.1,0.5,0,0.7,0.2l2.1,4.4
	C18.9,37.9,18.8,38.2,18.5,38.4z M18.8,29.9l-4.1,1.4c-0.1,0-0.1,0-0.2,0c-0.2,0-0.4-0.1-0.5-0.3c-0.1-0.3,0.1-0.5,0.3-0.6l4.1-1.4
	c0.3-0.1,0.5,0.1,0.6,0.3C19.2,29.5,19,29.8,18.8,29.9z M19.9,27.3c-0.1,0.1-0.3,0.2-0.4,0.2c-0.1,0-0.2,0-0.3-0.1l-3.6-2.3
	c-0.2-0.1-0.3-0.5-0.2-0.7c0.1-0.2,0.5-0.3,0.7-0.2l3.6,2.3C20,26.7,20.1,27,19.9,27.3z M21.5,35.9c-0.1,0-0.1,0-0.2,0
	c-0.3-0.1-0.4-0.4-0.3-0.7l1.7-3.8c0.1-0.3,0.4-0.4,0.7-0.3c0.3,0.1,0.4,0.4,0.3,0.7L22,35.6C21.9,35.8,21.7,35.9,21.5,35.9z
	 M26.3,43c-0.1,0.1-0.2,0.1-0.3,0.1c-0.1,0-0.3-0.1-0.4-0.2l-3.2-4.1c-0.2-0.2-0.1-0.5,0.1-0.7c0.2-0.2,0.5-0.1,0.7,0.1l3.2,4.1
	C26.6,42.5,26.5,42.8,26.3,43z M29.6,35.9l-3.3,2.7c-0.1,0.1-0.2,0.1-0.3,0.1c-0.1,0-0.3-0.1-0.4-0.2c-0.2-0.2-0.1-0.5,0.1-0.7
	l3.3-2.7c0.2-0.2,0.5-0.1,0.7,0.1C29.9,35.4,29.8,35.7,29.6,35.9z M32.3,37l-1.2,4.1c-0.1,0.2-0.3,0.4-0.5,0.4c0,0-0.1,0-0.1,0
	c-0.3-0.1-0.4-0.4-0.3-0.6l1.2-4.1c0.1-0.3,0.4-0.4,0.6-0.3C32.2,36.5,32.4,36.8,32.3,37z M34.6,35.9c-0.2-0.2-0.3-0.5-0.1-0.7
	l2.4-3.5c0.2-0.2,0.5-0.3,0.7-0.1c0.2,0.2,0.3,0.5,0.1,0.7l-2.4,3.5c-0.1,0.1-0.3,0.2-0.4,0.2C34.8,36,34.7,36,34.6,35.9z
	 M38.3,42.4c-0.1,0.1-0.2,0.1-0.3,0.1c-0.2,0-0.3-0.1-0.4-0.2L35,38.9c-0.2-0.2-0.1-0.5,0.1-0.7c0.2-0.2,0.5-0.1,0.7,0.1l2.6,3.4
	C38.6,41.9,38.5,42.2,38.3,42.4z M42.6,32.3l-3.4,2.6C39.1,35,39,35,38.9,35c-0.2,0-0.3-0.1-0.4-0.2c-0.2-0.2-0.1-0.5,0.1-0.7
	l3.4-2.6c0.2-0.2,0.5-0.1,0.7,0.1C42.9,31.8,42.8,32.1,42.6,32.3z"/>
</svg>
